{
    "asset" : {
        "generator" : "Khronos glTF Blender I/O v3.3.27",
        "version" : "2.0"
    },
    "extensionsUsed" : [
        "KHR_materials_specular",
        "KHR_materials_ior"
    ],
    "scene" : 0,
    "scenes" : [
        {
            "name" : "Scene",
            "nodes" : [
                0
            ]
        }
    ],
    "nodes" : [
        {
            "mesh" : 0,
            "name" : "Nuxt",
            "scale" : [
                0.17534926533699036,
                0.024710211902856827,
                0.12079817056655884
            ],
            "translation" : [
                0.8989416360855103,
                2.8652491569519043,
                0
            ]
        }
    ],
    "materials" : [
        {
            "doubleSided" : true,
            "extensions" : {
                "KHR_materials_specular" : {
                    "specularColorFactor" : [
                        0,
                        0,
                        0
                    ]
                },
                "KHR_materials_ior" : {
                    "ior" : 1.4500000476837158
                }
            },
            "name" : "Material",
            "pbrMetallicRoughness" : {
                "baseColorFactor" : [
                    0,
                    0.7083759903907776,
                    0.2195262312889099,
                    1
                ],
                "metallicFactor" : 0
            }
        },
        {
            "doubleSided" : true,
            "extensions" : {
                "KHR_materials_specular" : {
                    "specularColorFactor" : [
                        0,
                        0,
                        0
                    ]
                },
                "KHR_materials_ior" : {
                    "ior" : 1.4500000476837158
                }
            },
            "name" : "Material.001",
            "pbrMetallicRoughness" : {
                "baseColorFactor" : [
                    0.21223078668117523,
                    0.8468735814094543,
                    0.5209956765174866,
                    1
                ],
                "metallicFactor" : 0
            }
        }
    ],
    "meshes" : [
        {
            "name" : "Cube.001",
            "primitives" : [
                {
                    "attributes" : {
                        "POSITION" : 0,
                        "NORMAL" : 1,
                        "TEXCOORD_0" : 2
                    },
                    "indices" : 3,
                    "material" : 0
                },
                {
                    "attributes" : {
                        "POSITION" : 4,
                        "NORMAL" : 5,
                        "TEXCOORD_0" : 6
                    },
                    "indices" : 7,
                    "material" : 1
                }
            ]
        }
    ],
    "accessors" : [
        {
            "bufferView" : 0,
            "componentType" : 5126,
            "count" : 2894,
            "max" : [
                1.0038572549819946,
                7.03855037689209,
                0.32350996136665344
            ],
            "min" : [
                -1.003857135772705,
                -5.472678184509277,
                -0.32350996136665344
            ],
            "type" : "VEC3"
        },
        {
            "bufferView" : 1,
            "componentType" : 5126,
            "count" : 2894,
            "type" : "VEC3"
        },
        {
            "bufferView" : 2,
            "componentType" : 5126,
            "count" : 2894,
            "type" : "VEC2"
        },
        {
            "bufferView" : 3,
            "componentType" : 5123,
            "count" : 16512,
            "type" : "SCALAR"
        },
        {
            "bufferView" : 4,
            "componentType" : 5126,
            "count" : 3880,
            "max" : [
                -0.517699122428894,
                9.852094650268555,
                0.3957516849040985
            ],
            "min" : [
                -2.2232542037963867,
                -5.453157424926758,
                -0.39575162529945374
            ],
            "type" : "VEC3"
        },
        {
            "bufferView" : 5,
            "componentType" : 5126,
            "count" : 3880,
            "type" : "VEC3"
        },
        {
            "bufferView" : 6,
            "componentType" : 5126,
            "count" : 3880,
            "type" : "VEC2"
        },
        {
            "bufferView" : 7,
            "componentType" : 5123,
            "count" : 15936,
            "type" : "SCALAR"
        }
    ],
    "bufferViews" : [
        {
            "buffer" : 0,
            "byteLength" : 34728,
            "byteOffset" : 0,
            "target" : 34962
        },
        {
            "buffer" : 0,
            "byteLength" : 34728,
            "byteOffset" : 34728,
            "target" : 34962
        },
        {
            "buffer" : 0,
            "byteLength" : 23152,
            "byteOffset" : 69456,
            "target" : 34962
        },
        {
            "buffer" : 0,
            "byteLength" : 33024,
            "byteOffset" : 92608,
            "target" : 34963
        },
        {
            "buffer" : 0,
            "byteLength" : 46560,
            "byteOffset" : 125632,
            "target" : 34962
        },
        {
            "buffer" : 0,
            "byteLength" : 46560,
            "byteOffset" : 172192,
            "target" : 34962
        },
        {
            "buffer" : 0,
            "byteLength" : 31040,
            "byteOffset" : 218752,
            "target" : 34962
        },
        {
            "buffer" : 0,
            "byteLength" : 31872,
            "byteOffset" : 249792,
            "target" : 34963
        }
    ],
    "buffers" : [
        {
            "byteLength" : 281664,
            "uri" : "data:application/octet-stream;base64,"
        }
    ]
}
